{
	"asset":{
		"generator":"Khronos glTF Blender I/O v5.0.21",
		"version":"2.0"
	},
	"extensionsUsed":[
		"KHR_lights_punctual"
	],
	"extensionsRequired":[
		"KHR_lights_punctual"
	],
	"extensions":{
		"KHR_lights_punctual":{
			"lights":[
				{
					"color":[
						1,
						1,
						1
					],
					"intensity":79.57747154594767,
					"type":"point",
					"name":"Light"
				}
			]
		}
	},
	"scene":0,
	"scenes":[
		{
			"name":"Scene",
			"nodes":[
				0,
				1,
				2,
				3
			]
		}
	],
	"nodes":[
		{
			"mesh":0,
			"name":"Porta",
			"rotation":[
				0,
				-0.7071068286895752,
				0,
				0.7071068286895752
			],
			"scale":[
				12,
				24,
				2
			]
		},
		{
			"extensions":{
				"KHR_lights_punctual":{
					"light":0
				}
			},
			"name":"Light",
			"rotation":[
				-0.28416627645492554,
				0.7269423007965088,
				0.34203392267227173,
				0.5232754945755005
			],
			"translation":[
				4.076245307922363,
				5.903861999511719,
				-1.0054539442062378
			]
		},
		{
			"camera":0,
			"name":"Camera",
			"rotation":[
				-0.20997299253940582,
				0.3857799470424652,
				0.09062844514846802,
				0.8937962055206299
			],
			"translation":[
				7.358891487121582,
				4.958309173583984,
				6.925790786743164
			]
		},
		{
			"mesh":1,
			"name":"Cube.001",
			"rotation":[
				0,
				-0.7071068286895752,
				0,
				0.7071068286895752
			],
			"scale":[
				-3.3400001525878906,
				-4.300000190734863,
				-4
			],
			"translation":[
				5.040811538696289,
				31.125062942504883,
				7.515401840209961
			]
		}
	],
	"cameras":[
		{
			"name":"Camera",
			"perspective":{
				"aspectRatio":1.7777777777777777,
				"yfov":0.39959648408210363,
				"zfar":100,
				"znear":0.10000000149011612
			},
			"type":"perspective"
		}
	],
	"animations":[
		{
			"channels":[
				{
					"sampler":0,
					"target":{
						"node":0,
						"path":"translation"
					}
				},
				{
					"sampler":1,
					"target":{
						"node":0,
						"path":"rotation"
					}
				},
				{
					"sampler":2,
					"target":{
						"node":0,
						"path":"scale"
					}
				}
			],
			"name":"PortaAction",
			"samplers":[
				{
					"input":16,
					"interpolation":"STEP",
					"output":17
				},
				{
					"input":18,
					"interpolation":"LINEAR",
					"output":19
				},
				{
					"input":16,
					"interpolation":"STEP",
					"output":20
				}
			]
		}
	],
	"materials":[
		{
			"doubleSided":true,
			"name":"Material",
			"pbrMetallicRoughness":{
				"baseColorFactor":[
					0.14099299907684326,
					0.03742457181215286,
					0.003763603512197733,
					1
				],
				"metallicFactor":0,
				"roughnessFactor":0.5
			}
		},
		{
			"doubleSided":true,
			"name":"gold",
			"pbrMetallicRoughness":{
				"baseColorFactor":[
					0.4981728494167328,
					0.31093549728393555,
					0.040179360657930374,
					1
				],
				"roughnessFactor":0.20000000298023224
			}
		},
		{
			"doubleSided":true,
			"name":"gold.001",
			"pbrMetallicRoughness":{
				"baseColorFactor":[
					0.4981728494167328,
					0.31093549728393555,
					0.040179360657930374,
					1
				],
				"roughnessFactor":0.20000000298023224
			}
		}
	],
	"meshes":[
		{
			"name":"Cube",
			"primitives":[
				{
					"attributes":{
						"POSITION":0,
						"NORMAL":1,
						"TEXCOORD_0":2
					},
					"indices":3,
					"material":0
				},
				{
					"attributes":{
						"POSITION":4,
						"NORMAL":5,
						"TEXCOORD_0":6
					},
					"indices":7,
					"material":1
				},
				{
					"attributes":{
						"POSITION":8,
						"NORMAL":9,
						"TEXCOORD_0":10
					},
					"indices":11,
					"material":2
				}
			]
		},
		{
			"name":"Cube.003",
			"primitives":[
				{
					"attributes":{
						"POSITION":12,
						"NORMAL":13,
						"TEXCOORD_0":14
					},
					"indices":15
				}
			]
		}
	],
	"accessors":[
		{
			"bufferView":0,
			"componentType":5126,
			"count":4410,
			"max":[
				23.939617156982422,
				48.03266906738281,
				2
			],
			"min":[
				-0.06038188934326172,
				0.03266716003417969,
				-2
			],
			"type":"VEC3"
		},
		{
			"bufferView":1,
			"componentType":5126,
			"count":4410,
			"type":"VEC3"
		},
		{
			"bufferView":2,
			"componentType":5126,
			"count":4410,
			"type":"VEC2"
		},
		{
			"bufferView":3,
			"componentType":5123,
			"count":22020,
			"type":"SCALAR"
		},
		{
			"bufferView":4,
			"componentType":5126,
			"count":1196,
			"max":[
				22.993236541748047,
				25.412870407104492,
				3.5514731407165527
			],
			"min":[
				20.493236541748047,
				22.912870407104492,
				1.551473617553711
			],
			"type":"VEC3"
		},
		{
			"bufferView":5,
			"componentType":5126,
			"count":1196,
			"type":"VEC3"
		},
		{
			"bufferView":6,
			"componentType":5126,
			"count":1196,
			"type":"VEC2"
		},
		{
			"bufferView":7,
			"componentType":5123,
			"count":6336,
			"type":"SCALAR"
		},
		{
			"bufferView":8,
			"componentType":5126,
			"count":1127,
			"max":[
				23.023996353149414,
				25.412870407104492,
				-1.9627995491027832
			],
			"min":[
				20.523996353149414,
				22.912870407104492,
				-3.550736904144287
			],
			"type":"VEC3"
		},
		{
			"bufferView":9,
			"componentType":5126,
			"count":1127,
			"type":"VEC3"
		},
		{
			"bufferView":10,
			"componentType":5126,
			"count":1127,
			"type":"VEC2"
		},
		{
			"bufferView":11,
			"componentType":5123,
			"count":5808,
			"type":"SCALAR"
		},
		{
			"bufferView":12,
			"componentType":5126,
			"count":1896,
			"max":[
				1,
				1,
				1
			],
			"min":[
				-3.5987815856933594,
				-3.3365302085876465,
				-1.000000238418579
			],
			"type":"VEC3"
		},
		{
			"bufferView":13,
			"componentType":5126,
			"count":1896,
			"type":"VEC3"
		},
		{
			"bufferView":14,
			"componentType":5126,
			"count":1896,
			"type":"VEC2"
		},
		{
			"bufferView":15,
			"componentType":5123,
			"count":10512,
			"type":"SCALAR"
		},
		{
			"bufferView":16,
			"componentType":5126,
			"count":2,
			"max":[
				1.25
			],
			"min":[
				0.041666666666666664
			],
			"type":"SCALAR"
		},
		{
			"bufferView":17,
			"componentType":5126,
			"count":2,
			"type":"VEC3"
		},
		{
			"bufferView":18,
			"componentType":5126,
			"count":30,
			"max":[
				1.25
			],
			"min":[
				0.041666666666666664
			],
			"type":"SCALAR"
		},
		{
			"bufferView":19,
			"componentType":5126,
			"count":30,
			"type":"VEC4"
		},
		{
			"bufferView":20,
			"componentType":5126,
			"count":2,
			"type":"VEC3"
		}
	],
	"bufferViews":[
		{
			"buffer":0,
			"byteLength":52920,
			"byteOffset":0,
			"target":34962
		},
		{
			"buffer":0,
			"byteLength":52920,
			"byteOffset":52920,
			"target":34962
		},
		{
			"buffer":0,
			"byteLength":35280,
			"byteOffset":105840,
			"target":34962
		},
		{
			"buffer":0,
			"byteLength":44040,
			"byteOffset":141120,
			"target":34963
		},
		{
			"buffer":0,
			"byteLength":14352,
			"byteOffset":185160,
			"target":34962
		},
		{
			"buffer":0,
			"byteLength":14352,
			"byteOffset":199512,
			"target":34962
		},
		{
			"buffer":0,
			"byteLength":9568,
			"byteOffset":213864,
			"target":34962
		},
		{
			"buffer":0,
			"byteLength":12672,
			"byteOffset":223432,
			"target":34963
		},
		{
			"buffer":0,
			"byteLength":13524,
			"byteOffset":236104,
			"target":34962
		},
		{
			"buffer":0,
			"byteLength":13524,
			"byteOffset":249628,
			"target":34962
		},
		{
			"buffer":0,
			"byteLength":9016,
			"byteOffset":263152,
			"target":34962
		},
		{
			"buffer":0,
			"byteLength":11616,
			"byteOffset":272168,
			"target":34963
		},
		{
			"buffer":0,
			"byteLength":22752,
			"byteOffset":283784,
			"target":34962
		},
		{
			"buffer":0,
			"byteLength":22752,
			"byteOffset":306536,
			"target":34962
		},
		{
			"buffer":0,
			"byteLength":15168,
			"byteOffset":329288,
			"target":34962
		},
		{
			"buffer":0,
			"byteLength":21024,
			"byteOffset":344456,
			"target":34963
		},
		{
			"buffer":0,
			"byteLength":8,
			"byteOffset":365480
		},
		{
			"buffer":0,
			"byteLength":24,
			"byteOffset":365488
		},
		{
			"buffer":0,
			"byteLength":120,
			"byteOffset":365512
		},
		{
			"buffer":0,
			"byteLength":480,
			"byteOffset":365632
		},
		{
			"buffer":0,
			"byteLength":24,
			"byteOffset":366112
		}
	],
	"buffers":[
		{
			"byteLength":366136,
			"uri":"porta-a504b920551817795fd47f24cec92f90.bin"
		}
	]
}
